# xmcd CD database file
#
# Track frame offsets:
#	150
#	39012
#	70377
#	82717
#	88475
#	133480
#	168437
#	183672
#	214575
#	252184
#
# Disc length: 3425 seconds
#
# Revision: 0
# Processed by: cddbd v1.5.2PL0 Copyright (c) Steve Scherf et al.
# Submitted via: CDex 1.70beta2
#
DISCID=890d5f0a
DTITLE=François Houle - Any Terrain Tumultuous (with Marilyn Crispell)
DYEAR=1995
DGENRE=Jazz
TTITLE0=Any Terrain Tumultuous Part I
TTITLE1=Nomad
TTITLE2=A Patch Sets (5 Miniatures)
TTITLE3=Every Time
TTITLE4=Any Terrain Tumultuous Part II
TTITLE5=Marsyas
TTITLE6=Song For Jeanne Lee
TTITLE7=Oolique
TTITLE8=For Clayoquot
TTITLE9=Provided I Could
EXTD=YEAR: 1995
EXTT0=
EXTT1=
EXTT2=
EXTT3=
EXTT4=
EXTT5=
EXTT6=
EXTT7=
EXTT8=
EXTT9=
PLAYORDER=
